<svg xmlns:xlink="http://www.w3.org/1999/xlink" xmlns="http://www.w3.org/2000/svg" fill="currentColor" viewBox="0 0 24 24"   aria-hidden="true" class="x1lliihq x2lah0s x1k90msu x2h7rmj x1qfuztq x198g3q0 xxk0z11 xvy4d1p" width="1"  height="1" ><path fill-rule="evenodd" d="M12 8.5a3.5 3.5 0 1 1 0 7 3.5 3.5 0 0 1 0-7m0 2a1.5 1.5 0 1 0 0 3 1.5 1.5 0 0 0 0-3" clip-rule="evenodd" fill="#0A1317"></path><path fill-rule="evenodd" d="M5.677 7.756c3.537-3.675 9.11-3.675 12.646 0l3.395 3.526a1.054 1.054 0 0 1 0 1.436l-3.395 3.526c-3.426 3.56-8.764 3.671-12.31.334l-.336-.334-3.395-3.526a1.054 1.054 0 0 1 0-1.436zm11.206 1.386c-2.75-2.857-7.016-2.857-9.766 0L4.367 12l2.75 2.857c2.75 2.857 7.016 2.857 9.766 0L19.632 12z" clip-rule="evenodd" fill="#0A1317"></path></svg>